# xmcd CD database file
#
# Track frame offsets:
#	150
#	20010
#	45410
#	83322
#	101427
#	124122
#	138627
#	167962
#	187857
#	198550
#
# Disc length: 2912 seconds
#
# Revision: 0
# Processed by: cddbd v1.5.1PL2 Copyright (c) Steve Scherf et al.
# Submitted via: CDex 1.51
#
DISCID=7c0b5e0a
DTITLE=CJ Kim - endless story
DYEAR=2003
DGENRE=Jazz
TTITLE0=Alex In May
TTITLE1=The Rain Song(featuring Coco Rouzier)
TTITLE2=Along Came Betty
TTITLE3=Hudi's Blues
TTITLE4=I Remember You
TTITLE5=Endless Story
TTITLE6=Takin' A Chance On Love
TTITLE7=Something's Coming(Excerpt)
TTITLE8=My Funny Valentine
TTITLE9=Adagio In G Minor
EXTD=YEAR: 2003
EXTT0=
EXTT1=
EXTT2=
EXTT3=
EXTT4=
EXTT5=
EXTT6=
EXTT7=
EXTT8=
EXTT9=
PLAYORDER=
